Coordinates
version=1
nRows=16
nColumns=36
inDegrees=yes

Units are S.I. units (second, meters, Newtons, ...)
If the header above contains a line with 'inDegrees', this indicates whether rotational values are in degrees (yes) or radians (no).

endheader
time	pelvis_tilt	pelvis_list	pelvis_rotation	pelvis_tx	pelvis_ty	pelvis_tz	hip_flexion_r	hip_adduction_r	hip_rotation_r	knee_angle_r	knee_angle_r_beta	ankle_angle_r	subtalar_angle_r	mtp_angle_r	hip_flexion_l	hip_adduction_l	hip_rotation_l	knee_angle_l	knee_angle_l_beta	ankle_angle_l	subtalar_angle_l	mtp_angle_l	lumbar_extension	lumbar_bending	lumbar_rotation	arm_flex_r	arm_add_r	arm_rot_r	elbow_flex_r	pro_sup_r	arm_flex_l	arm_add_l	arm_rot_l	elbow_flex_l	pro_sup_l
      2.23333330	    -31.68393390	      1.74118652	     -2.81103377	      0.57292872	      0.79133530	      0.46676757	     74.78664979	    -14.43715296	     -5.07132543	     60.84933724	      1.06202128	     29.65957805	     20.18322879	     -7.49999987	     75.14860147	    -11.69278608	     -0.67497075	     59.54930472	      1.03933143	     29.15797660	      7.86254079	     -7.49999987	    -17.30313541	      1.75211641	      8.35579132	     95.20980299	     -5.55656195	     72.95954154	    127.62806236	     82.35415731	     90.64003863	      4.90587173	     68.41743041	    122.41637477	     96.00564535
      2.25000000	    -32.32987153	      1.70520405	     -2.63475367	      0.56846977	      0.77402302	      0.47018985	     76.92980155	    -14.87483945	     -5.03641637	     63.09723882	      1.10125457	     30.25056042	     20.18504075	     -7.49999987	     77.40471249	    -11.82132380	     -0.39358873	     61.83333533	      1.07919529	     29.91677180	      8.01126962	     -7.49999987	    -17.48093036	      1.72025036	      8.17319856	     96.80049329	     -5.53453114	     71.07291510	    126.58705293	     80.05486761	     93.54952240	      3.83373523	     66.37241637	    121.51499773	     92.86302441
      2.26666670	    -32.88872303	      1.75433413	     -2.47650061	      0.56662776	      0.76788533	      0.47022627	     78.92786013	    -15.22242764	     -4.81123854	     65.21190644	      1.13816248	     30.75813568	     19.88883293	     -7.49999987	     79.39553314	    -11.99574352	     -0.29079406	     63.90930517	      1.11542780	     30.59212883	      8.03923248	     -7.49999987	    -17.77157044	      1.66073766	      8.26454607	     96.77269760	     -5.19809734	     72.16323534	    126.65318007	     79.57121995	     94.03933697	      3.81979235	     66.80488891	    121.13071004	     92.31646440
      2.28333330	    -33.53893402	      1.70196368	     -2.31376768	      0.56711145	      0.76516822	      0.47044037	     80.54504359	    -15.52490118	     -4.81866684	     66.74539158	      1.16492684	     31.07359578	     19.54634583	     -7.49999987	     81.16728957	    -12.11373491	     -0.05768604	     65.56324453	      1.14429449	     31.12831161	      8.03751088	     -7.49999987	    -18.24489453	      1.66836594	      8.55472765	     96.92810589	     -6.83188825	     71.19894875	    124.57384061	     77.58624195	     94.79043482	      3.43147821	     66.97876767	    119.70798461	     97.44152095
      2.30000000	    -33.91005798	      1.76120443	     -2.09952674	      0.56587338	      0.75956339	      0.47042000	     81.84297071	    -15.89477849	     -4.69534336	     68.15338775	      1.18950101	     31.28759997	     19.30467593	     -7.49999987	     82.52464494	    -12.17960439	     -0.06382977	     67.02204984	      1.16975544	     31.48842790	      8.26528958	     -7.49999987	    -18.99837367	      1.55059943	      8.51221293	     96.31673360	     -7.06611256	     71.36091249	    123.73648328	     76.84206868	     94.57364022	      3.06308891	     66.85344715	    119.36057354	     96.38909844
      2.31666670	    -34.30308652	      1.69075866	     -1.93979135	      0.56015170	      0.74970753	      0.46792992	     83.25897392	    -16.22730861	     -4.70272882	     69.67772357	      1.21610569	     31.45794319	     18.99974282	     -7.49999987	     84.14649749	    -12.38425169	     -0.06002484	     68.68208971	      1.19872860	     31.88619332	      8.58080492	     -7.49999987	    -19.52929551	      1.70113881	      8.74363566	     96.71715028	     -6.60118308	     72.30919209	    123.95108074	     76.09859272	     95.05092519	      3.47979423	     66.74854129	    119.28746176	     95.02237910
      2.33333330	    -34.49964122	      1.60000920	     -1.78884784	      0.56551838	      0.73138233	      0.47008238	     84.63512258	    -16.53664652	     -4.55956374	     71.70912973	      1.25156042	     32.02713825	     18.64991742	     -7.49999987	     85.71399991	    -12.62815372	      0.07439350	     70.69998874	      1.23394758	     32.55971630	      8.94701746	     -7.49999987	    -19.80278806	      1.77864897	      8.76372728	     97.16533065	     -7.02645901	     70.98474332	    123.45302422	     75.33846602	     95.09634928	      3.68850439	     65.98488973	    119.94946489	     93.50685724
      2.35000000	    -34.80078415	      1.48547592	     -1.61777940	      0.55911184	      0.72254693	      0.46871715	     86.40469316	    -16.85318807	     -4.33106058	     73.92751608	      1.29027856	     32.53376837	     18.20002430	     -7.49999987	     87.60444825	    -12.86425942	      0.21468477	     72.82513791	      1.27103843	     33.09642770	      9.06135986	     -7.49999987	    -20.25923635	      1.84800913	      8.82258133	     97.71009453	     -7.29822863	     70.09085508	    123.20161034	     75.31046392	     95.47359856	      3.84835989	     65.19841380	    120.28751741	     93.65093437
      2.36666670	    -35.22499332	      1.36504865	     -1.44983974	      0.55991718	      0.71393485	      0.47400779	     88.18741832	    -17.18528289	     -4.27148427	     76.06201725	      1.32753264	     32.99468283	     17.90977580	     -7.49999987	     89.51386971	    -13.16583929	      0.37757399	     74.81444904	      1.30575846	     33.60557388	      9.37467520	     -7.49999987	    -20.59602801	      1.93852262	      8.80647709	     96.92553888	     -7.07435197	     70.12194697	    122.35811888	     75.18745704	     94.38321359	      3.08801384	     65.65832293	    120.32585180	     94.04269741
      2.38333330	    -35.66657163	      1.26946092	     -1.26636215	      0.55416991	      0.70937911	      0.47193623	     89.88004619	    -17.53150981	     -4.22585739	     77.85173037	      1.35876902	     33.23613281	     17.49850720	     -7.49999987	     91.31228905	    -13.35614100	      0.48919337	     76.46226459	      1.33451827	     33.80841786	      9.33784353	     -7.49999987	    -21.23306311	      2.13258566	      8.80148898	     97.35338070	     -7.31876826	     71.27376865	    122.29688747	     75.10123185	     93.98041457	      3.23736773	     65.56802435	    119.97749120	     94.46744721
      2.40000000	    -36.11468294	      1.12680577	     -1.13407608	      0.55334824	      0.70007280	      0.47168273	     91.49195188	    -17.86738648	     -4.29115915	     79.50497853	      1.38762365	     33.39541834	     17.17513910	     -7.49999987	     93.08157907	    -13.52120728	      0.73102664	     78.00709198	      1.36148059	     33.97850552	      9.40324798	     -7.49999987	    -22.05896200	      2.28991054	      9.20083012	     98.14331286	     -7.75383481	     73.59412637	    122.79534714	     74.03330523	     93.49372634	      3.49131133	     65.59062841	    119.10384994	     94.63225495
      2.41666670	    -36.31424908	      1.04466774	     -0.96325359	      0.54738755	      0.68281179	      0.47013544	     93.23398221	    -18.27984791	     -4.12785801	     81.57983605	      1.42383674	     33.69889148	     16.87748471	     -7.49999987	     94.83437404	    -13.66722025	      0.90310408	     79.87258429	      1.39403958	     34.15380082	      9.39599800	     -7.49999987	    -22.40921654	      2.29022119	      9.48408961	     99.58357503	     -7.98734564	     74.99763644	    124.73595822	     72.50546180	     94.96480912	      4.50281097	     64.54119390	    119.29970780	     94.47818115
      2.43333330	    -36.66639426	      1.05167304	     -0.73549527	      0.54209090	      0.66944155	      0.47293479	     95.40992451	    -18.69250938	     -3.74276955	     83.90364029	      1.46439478	     33.94177540	     16.43296367	     -7.49999987	     96.91646062	    -13.80185692	      1.02425874	     81.86224826	      1.42876577	     34.27597502	      9.26337163	     -7.49999987	    -22.71243049	      2.16038760	      9.24690862	    100.80207337	     -7.91563552	     72.50694245	    124.41322172	     71.45277083	     96.69264770	      4.37572998	     65.18664334	    119.55922906	     92.47401680
      2.45000000	    -37.11698610	      0.84092107	     -0.68635681	      0.54801831	      0.66728966	      0.46984696	     97.17795589	    -18.95624705	     -3.76247814	     85.71792355	      1.49605999	     34.13257380	     16.14027073	     -7.49999987	     98.85750223	    -13.98333135	      1.42364792	     83.51036522	      1.45753083	     34.29340800	      8.97646645	     -7.49999987	    -23.15611007	      2.29555969	      9.71682320	    100.45854068	     -8.67666723	     76.08493694	    124.60538416	     70.36830954	     95.84960670	      4.80120268	     66.46330012	    118.19435052	     93.22432740
      2.46666670	    -37.70207949	      0.73238954	     -0.43933089	      0.53545092	      0.65772815	      0.47072904	     99.17899341	    -19.46737084	     -3.71647701	     87.36816461	      1.52486213	     34.07975526	     15.85276132	     -7.49999987	    100.85883847	    -13.96930884	      1.57892017	     84.93483415	      1.48239251	     34.18356582	      8.99107670	     -7.49999987	    -23.99420624	      2.54555015	      9.83936038	    102.09988833	     -9.31428528	     75.47378118	    124.20773019	     70.11936949	     97.34668272	      4.78382772	     66.15239148	    117.30819731	     93.33060423
      2.48333330	    -37.91069966	      0.59658346	     -0.33246235	      0.54159108	      0.64322461	      0.46802088	    100.64128781	    -19.83658737	     -3.70975681	     88.91983803	      1.55194394	     34.08381688	     15.44756526	     -7.49999987	    102.41237081	    -14.02245376	      1.83628514	     86.35621553	      1.50720029	     34.16486482	      8.88852449	     -7.49999987	    -24.63473016	      2.23777284	     10.41279009	    103.02754431	    -10.78260738	     76.17501611	    125.99454926	     57.05148190	     99.37955761	      6.61623202	     66.80912460	    115.62325907	     96.27876817
